<svg xmlns="http://www.w3.org/2000/svg" viewBox="0 0 20.58 19.53"><defs><style>.cls-1{fill:#fff;}</style></defs><title>Asset 19</title><g id="Layer_2" data-name="Layer 2"><g id="Layer_1-2" data-name="Layer 1"><path class="cls-1" d="M20.53,18.18l-1-3.09a1,1,0,0,0-1-.7h-1V7.2h1a1,1,0,0,0,1-1V4.11a1,1,0,0,0-.66-1L10.65.07a1,1,0,0,0-.72,0L1.7,3.15a1,1,0,0,0-.67,1V6.17a1,1,0,0,0,1,1h1v7.19h-1a1,1,0,0,0-1,.7l-1,3.09a1,1,0,0,0,.14.92,1,1,0,0,0,.84.43H19.55a1,1,0,0,0,.84-.43A1,1,0,0,0,20.53,18.18Zm-5.09-3.79H13.38V7.2h2.06ZM11.32,7.2v7.19H9.26V7.2ZM3.09,4.83l7.2-2.7,7.21,2.7v.31H3.09ZM5.15,7.2H7.2v7.19h-2ZM2.46,17.48l.34-1h15l.35,1Z"/><rect class="cls-1" x="6.9" y="10.79" width="2.06" height="3.63"/><rect class="cls-1" x="12.1" y="10.79" width="2.06" height="3.63"/><rect class="cls-1" x="9.5" y="6.79" width="2.06" height="7.26" transform="translate(20.95 -0.11) rotate(90)"/></g></g></svg>