<svg xmlns="http://www.w3.org/2000/svg" viewBox="0 0 12.6 13.59"><defs><style>.cls-1{fill:#b0b0b0;}</style></defs><title>Asset 4</title><g id="Layer_2" data-name="Layer 2"><g id="Layer_1-2" data-name="Layer 1"><path class="cls-1" d="M4.31,3.09A2.34,2.34,0,0,1,9,3.09h.75a3.09,3.09,0,0,0-6.18,0Z"/><path class="cls-1" d="M10.27,13.22v-.38H2.33A1.58,1.58,0,0,1,.75,11.26V5.53A1.58,1.58,0,0,1,2.33,4h7.94a1.58,1.58,0,0,1,1.58,1.58v5.73a1.58,1.58,0,0,1-1.58,1.58v.75a2.33,2.33,0,0,0,2.33-2.33V5.53A2.33,2.33,0,0,0,10.27,3.2H2.33A2.33,2.33,0,0,0,0,5.53v5.73a2.33,2.33,0,0,0,2.33,2.33h7.94Z"/><polyline class="cls-1" points="5.93 7.17 5.93 10.78 6.68 10.78 6.68 7.17"/><path class="cls-1" d="M7.05,7.92H6.68a.38.38,0,1,1-.75,0,.38.38,0,0,1,.75,0h.75A1.13,1.13,0,1,0,6.3,9.05,1.13,1.13,0,0,0,7.43,7.92Z"/></g></g></svg>