<svg xmlns="http://www.w3.org/2000/svg" viewBox="0 0 17.62 21.12"><defs><style>.cls-1{fill:#36ada9;}</style></defs><title>Asset 18</title><g id="Layer_2" data-name="Layer 2"><g id="Layer_1-2" data-name="Layer 1"><path class="cls-1" d="M13.58,0H7.05A1.76,1.76,0,0,0,5.29,1.76V14.08a1.76,1.76,0,0,0,1.76,1.76h8.81a1.76,1.76,0,0,0,1.76-1.76V4Zm2.28,14.08H7.05V1.76h5.28V5.28h3.53Z"/><path class="cls-1" d="M4.41,2.64H2.64V16.72a1.76,1.76,0,0,0,1.77,1.76H15V16.72H4.41Z"/><path class="cls-1" d="M1.76,5.28H0V19.36a1.76,1.76,0,0,0,1.76,1.76H12.33V19.36H1.76Z"/></g></g></svg>