<svg xmlns="http://www.w3.org/2000/svg" viewBox="0 0 17.05 15.33"><defs><style>.cls-1{fill:#36ada9;}</style></defs><title>Asset 17</title><g id="Layer_2" data-name="Layer 2"><g id="Layer_1-2" data-name="Layer 1"><path class="cls-1" d="M14.49,5.11a2.56,2.56,0,1,0-2.4-3.41H0V3.41H12.09A2.56,2.56,0,0,0,14.49,5.11Zm0-3.41a.86.86,0,1,1-.85.85A.85.85,0,0,1,14.49,1.7Z"/><path class="cls-1" d="M6,5.11a2.55,2.55,0,0,0-2.4,1.7H0V8.52H3.57a2.54,2.54,0,0,0,4.8,0h8.68V6.81H8.37A2.55,2.55,0,0,0,6,5.11ZM6,8.52a.86.86,0,0,1-.85-.86.85.85,0,1,1,1.7,0A.86.86,0,0,1,6,8.52Z"/><path class="cls-1" d="M14.49,10.22a2.56,2.56,0,0,0-2.4,1.7H0v1.71H12.09a2.55,2.55,0,1,0,2.4-3.41Zm0,3.41a.86.86,0,0,1-.85-.86.85.85,0,0,1,.85-.85.86.86,0,1,1,0,1.71Z"/></g></g></svg>